PathFileType	4	(X/Y/Z)	C:/Users/beibeiliu/ov580/test_trc/User3\sequence.13_training_dense_left.trc
DataRate	CameraRate	NumFrames	NumMarkers	Units	OrigDataRate	OrigDataStartFrame	OrigNumFrames
120	120	11	19	mm	120	209	278
Frame#	Time	ThumbCMC			ThumbMCP			ThumbIP			ThumbTip			IndexMCP			IndexPIP			IndexTip			MiddleMCP			MiddlePIP			MiddleTip			RingMCP			RingPIP			RingTip			PinkyMCP			PinkyPIP			PinkyTip			BackHand1			BackHand2			BackHand3	
		X0	Y0	Z0	X1	Y1	Z1	X2	Y2	Z2	X3	Y3	Z3	X4	Y4	Z4	X5	Y5	Z5	X6	Y6	Z6	X7	Y7	Z7	X8	Y8	Z8	X9	Y9	Z9	X10	Y10	Z10	X11	Y11	Z11	X12	Y12	Z12	X13	Y13	Z13	X14	Y14	Z14	X15	Y15	Z15	X16	Y16	Z16	X17	Y17	Z17	X18	Y18	Z18	
208	1.73333	-232.136	-9.91481	-7.70508	-230.917	-7.21119	-35.4102	-239.975	-1.66281	-64.1009	-246.479	4.41632	-84.818	-181.712	-39.2688	-67.4818	-174.083	-37.3004	-93.8898	-160.259	-40.0932	-111.963	-165.563	-56.0397	-55.9065	-148.273	-58.2995	-78.7656	-125.56	-64.4017	-103.209	-151.264	-61.4107	-33.9288	-132.7	-65.0067	-54.0373	-111.877	-71.5374	-68.3132	-142.511	-59.4625	-11.6312	-120.079	-63.2956	-16.9598	-104.451	-69.0416	-20.6769	-192.066	-57.8874	-0.0362101	-206.519	-57.8532	25.0876	-217.961	-42.4196	-6.4194	
209	1.74167	-232.095	-10.7845	-8.21708	-234.176	-5.73587	-32.8524	-240.37	-2.60898	-65.7449	-246.235	3.57494	-82.6078	-186.652	-39.3134	-66.3095	-174.314	-40.0483	-92.1047	-160.405	-43.7375	-113.513	-166.536	-58.7966	-56.5693	-149.833	-62.3872	-80.7621	-133.274	-64.4964	-107.195	-155.97	-61.9383	-37.7155	-138.555	-68.0391	-54.3058	-116.105	-74.6584	-71.8505	-142.58	-61.6929	-10.0659	-122.325	-66.7306	-15.5135	-102.104	-73.9504	-25.2048	-192.184	-61.0073	-1.10215	-207.29	-57.7875	19.3038	-220.527	-44.268	-5.96277	
210	1.75	-232.428	-13.0067	-11.3164	-234.44	-5.72082	-34.6059	-239.732	-2.07808	-63.3943	-249.184	4.88406	-83.755	-190.323	-40.4579	-72.3351	-179.369	-41.2158	-97.1104	-165.593	-45.4879	-113.916	-169.663	-60.4086	-60.647	-156.717	-62.5127	-80.7529	-133.991	-69.4082	-108.579	-155.708	-65.553	-38.1567	-142.3	-69.7495	-55.5223	-121.746	-77.3841	-73.0395	-145.823	-65.2711	-9.89816	-125.191	-70.2942	-18.3688	-107.523	-77.7297	-28.58	-197.072	-61.8058	-1.50159	-209.191	-57.7124	25.4097	-220.869	-43.6627	-10.4948	
211	1.75833	-231.604	-12.3506	-9.12763	-234.021	-7.00804	-37.5342	-243.027	0.111242	-65.1924	-247.186	6.82648	-81.0447	-193.34	-42.2881	-73.7134	-182.338	-44.4423	-94.5812	-168.583	-49.2159	-118.014	-172.88	-63.0775	-59.329	-160.125	-65.7595	-81.4049	-138.959	-73.5767	-108.978	-157.526	-69.9129	-41.6849	-143.608	-76.2265	-58.6179	-124.568	-83.377	-76.8315	-146.354	-68.7783	-14.9059	-130.01	-71.8917	-20.8581	-112.778	-81.2344	-30.2491	-194.592	-65.1874	-2.70522	-207.878	-60.0456	22.0682	-225.376	-43.8631	-11.4973	
212	1.76667	-234.718	-7.70583	-11.376	-238.251	0.460508	-33.7449	-241.018	5.2699	-63.8672	-244.321	13.5056	-80.7934	-195.915	-42.2684	-73.1017	-188.133	-44.4919	-95.9691	-176.541	-48.3152	-119.11	-181.666	-60.3908	-62.371	-163.789	-69.7978	-83.7702	-149.403	-74.3359	-112.684	-165.77	-70.4557	-43.2916	-149.854	-78.4276	-63.0257	-135.422	-86.2926	-77.701	-155.044	-69.7443	-15.8689	-135.551	-78.6116	-24.3642	-116.905	-87.9908	-30.1657	-198.486	-64.2888	-2.022	-213.132	-60.0263	23.6	-222.134	-42.7615	-9.05421	
213	1.775	-227.239	-3.97841	-5.68135	-231.752	9.25146	-32.6137	-233.237	14.0025	-60.6284	-240.161	25.6376	-81.2626	-198.797	-41.2551	-74.9556	-193.322	-41.7351	-97.9764	-182.625	-48.8111	-117.051	-185.561	-62.7572	-68.6242	-175.992	-67.8639	-87.8175	-160.678	-76.7106	-114.037	-173.796	-73.2017	-46.425	-161.976	-81.6861	-66.8664	-150.037	-89.3881	-85.0256	-160.791	-76.2573	-22.3633	-144.437	-86.4081	-33.2007	-128.442	-100.897	-40.8939	-203.574	-64.3071	-5.04097	-215.216	-57.6853	21.1522	-227.27	-34.7565	-8.64563	
214	1.78333	-222.129	3.02056	-4.75658	-222.773	14.5007	-32.6202	-223.707	24.0806	-59.0409	-225.261	35.8025	-74.3908	-203.7	-34.3445	-75.2622	-196.511	-38.1807	-97.4249	-189.558	-42.1053	-122.988	-196.014	-57.3963	-67.8417	-186.661	-63.0376	-96.6664	-175.374	-71.3015	-123.19	-183.695	-73.4819	-49.9078	-175.557	-82.6749	-69.0218	-163.006	-93.5422	-92.5721	-170.758	-80.7769	-26.7958	-155.207	-93.3869	-39.455	-143.171	-108.845	-50.3898	-212.027	-60.7411	-10.3817	-220.553	-52.5771	18.0296	-228.324	-31.3601	-9.03878	
215	1.79167	-213.238	7.66734	-3.5621	-214.011	21.8091	-27.8421	-213.223	32.9609	-54.6156	-212.206	44.1566	-68.9489	-205.843	-27.2528	-69.6072	-201.973	-30.2338	-95.6203	-196.83	-34.5427	-119.332	-202.629	-54.2404	-70.9399	-196.925	-57.2601	-93.8019	-189.123	-66.9749	-126.796	-195.778	-69.7877	-57.214	-188.823	-81.5053	-72.6328	-181.95	-88.7253	-96.506	-182.889	-83.8742	-31.2086	-173.339	-93.7128	-43.7992	-164.32	-110.137	-59.3706	-216.425	-55.263	-9.25126	-227.324	-45.0369	18.5189	-227.848	-22.1545	-10.6298	
216	1.8	-204.686	12.7863	4.97558	-201.706	25.8031	-25.124	-199.473	38.5208	-48.1609	-197.098	48.6813	-66.7643	-208.838	-17.4232	-69.1587	-206.028	-20.2421	-97.7817	-204.673	-22.1128	-119.076	-212.282	-40.0419	-68.7854	-209.314	-47.0607	-97.7412	-203.831	-58.4268	-126.366	-208.123	-60.9948	-53.5191	-205.09	-73.676	-76.6292	-200.997	-81.7424	-102.124	-200.526	-77.2446	-35.8603	-193.82	-90.1037	-48.8024	-188.985	-104.628	-67.8584	-225.208	-43.5515	-10.2603	-229.246	-40.7014	18.7723	-225.287	-12.7767	-5.76254	
217	1.80833	-192.965	16.0801	3.70675	-187.642	26.5196	-21.0391	-181.796	36.7553	-42.7177	-177.602	45.7553	-61.5536	-208.224	-7.38346	-68.3958	-207.896	-8.75404	-90.6203	-207.574	-7.70969	-117.131	-219.899	-30.75	-71.8411	-218.38	-33.7361	-95.5598	-218.373	-41.3642	-125.79	-219.901	-52.2886	-57.7794	-221.296	-62.4933	-76.8467	-220.119	-68.1229	-106.073	-215.743	-69.4317	-35.4394	-215.371	-84.7327	-51.7304	-213.473	-96.0157	-74.6043	-230.481	-33.283	-8.77584	-231.057	-30.1303	22.0703	-221.079	-4.29197	-2.23469	
218	1.81667	-181.906	9.93156	7.09952	-173.048	20.7078	-14.4342	-166.721	31.3062	-40.7147	-157.537	41.0012	-57.287	-206.021	-2.1136	-63.5904	-206.608	-0.684716	-87.4631	-207.908	3.48329	-113.9	-225.033	-21.2099	-68.2043	-224.816	-24.0039	-91.5545	-227.268	-26.7628	-125.349	-229.587	-41.9961	-53.6705	-233.043	-46.5113	-79.5703	-235.868	-54.1562	-101.791	-231.083	-61.4246	-34.2568	-232.603	-69.23	-57.5631	-238.491	-79.2987	-77.8787	-232.259	-24.6941	-5.41722	-233.78	-23.13	23.4226	-216.033	1.65433	3.78392	
